<?xml version="1.0" encoding="UTF-8" standalone="no"?>
<svg
   id="mdi-midi-port"
   viewBox="0 0 24 24"
   version="1.1"
   sodipodi:docname="icon.svg"
   inkscape:version="1.4 (86a8ad7, 2024-10-11)"
   xmlns:inkscape="http://www.inkscape.org/namespaces/inkscape"
   xmlns:sodipodi="http://sodipodi.sourceforge.net/DTD/sodipodi-0.dtd"
   xmlns="http://www.w3.org/2000/svg"
   xmlns:svg="http://www.w3.org/2000/svg">
  <defs
     id="defs1" />
  <sodipodi:namedview
     id="namedview1"
     pagecolor="#ffffff"
     bordercolor="#000000"
     borderopacity="0.25"
     inkscape:showpageshadow="2"
     inkscape:pageopacity="0.0"
     inkscape:pagecheckerboard="0"
     inkscape:deskcolor="#d1d1d1"
     inkscape:zoom="35.625"
     inkscape:cx="11.985965"
     inkscape:cy="12"
     inkscape:window-width="1842"
     inkscape:window-height="1057"
     inkscape:window-x="1990"
     inkscape:window-y="-8"
     inkscape:window-maximized="1"
     inkscape:current-layer="mdi-midi-port" />
  <path
     d="M12,2A10,10 0 0,1 22,12A10,10 0 0,1 12,22A10,10 0 0,1 2,12A10,10 0 0,1 12,2M20.18,12C20.18,8.18 17.55,4.96 14,4.07V6H10V4.07C6.45,4.96 3.82,8.18 3.82,12A8.18,8.18 0 0,0 12,20.18A8.18,8.18 0 0,0 20.18,12M7,10.64A1.36,1.36 0 0,1 8.36,12A1.36,1.36 0 0,1 7,13.36C6.25,13.36 5.64,12.75 5.64,12C5.64,11.25 6.25,10.64 7,10.64M17,10.64A1.36,1.36 0 0,1 18.36,12A1.36,1.36 0 0,1 17,13.36A1.36,1.36 0 0,1 15.64,12A1.36,1.36 0 0,1 17,10.64M8.36,14.27A1.37,1.37 0 0,1 9.73,15.64C9.73,16.39 9.12,17 8.36,17A1.36,1.36 0 0,1 7,15.64C7,14.88 7.61,14.27 8.36,14.27M15.64,14.27C16.39,14.27 17,14.88 17,15.64A1.36,1.36 0 0,1 15.64,17C14.88,17 14.27,16.39 14.27,15.64A1.37,1.37 0 0,1 15.64,14.27M12,15.64A1.36,1.36 0 0,1 13.36,17A1.36,1.36 0 0,1 12,18.36A1.36,1.36 0 0,1 10.64,17A1.36,1.36 0 0,1 12,15.64Z"
     id="path1"
     inkscape:label="path1"
     style="fill:#cccccc;fill-opacity:1;stroke:none;stroke-opacity:1" />
</svg>
